Patient4_TMGait_0pt4_03_left_02_EMG.mot
version=1
nRows=23
nColumns=33
inDegrees=no
endheader
time	1LAddLong	2LGlutMax	3LGlutMed	4LIliopsoas	5LSemiMemb	6LBicFemLong	7LRecFem	8LVastMed	9LVastLat	10LGasMed	11LTibAnt	12lTibPost	13LPeroneusLong	14LSol	15LExtDigLong	16LFlexDigLong	17RAddLong	18RGlutMax	19RGlutMed	20RIliopsoas	21RSemiMemb	22RBicFemLong	23RRecFem	24RVastMed	25RVastLat	26RGasMed	27RTibAnt	28RTibPost	29RPeroneusLong	30RSol	31RExtDigLong	32RFlexDigLong
2.15	0.010986	-0.07843	0.006714	0.006866	0.00473	0.015106	-0.072784	0.007477	0.27313	-0.021973	0.034332	0.00824	0.016174	-0.020905	0.008698	-0.014343	-0.006256	-0.13687	0.50491	0.002289	0.31128	0.053711	-0.00824	0.008087	0.026398	-0.044861	-0.028229	0.078278	0.032043	0.43991	-0.000916	-0.016937
2.151	0.009308	-0.058289	0.04425	-0.016937	0.003357	0.014191	-0.093689	0.00885	0.24994	-0.028229	0.052643	0.00946	-0.010223	-0.019379	0.001526	-0.010071	0.0177	-0.035095	0.80688	0.00473	0.24399	-0.013733	-0.008087	-0.009308	0.009613	-0.058594	0.068359	-0.041656	0.010376	0.030823	-0.004272	-0.019226
2.152	0.014954	-0.01297	0.045929	-0.007935	0.009766	0.019379	-0.12314	0.005188	0.17731	-0.017853	0.003967	0.010986	-0.008392	-0.00351	0.084229	-0.007629	-0.020447	0.033722	0.89264	0.004883	0.049286	-0.052185	-0.035095	0.039978	0.03006	-0.086212	0.064392	0.11002	-0.10483	-0.19699	-0.004425	-0.018463
2.153	0.021667	-0.055847	0.023804	0.005035	-0.000458	0.019989	-0.13245	0.009613	0.12802	-0.04364	-0.084991	0.01236	0.028992	0.007477	-0.041504	-0.005493	-0.008545	0.041962	0.48019	-0.056458	0.004578	-0.066528	-0.027924	0.002899	0.005951	-0.13672	0.10681	0.019531	-0.14648	0.27832	-0.002594	-0.013275
2.154	0.017395	-0.055695	-0.012054	-0.011139	0.002747	0.009308	-0.13275	0.01358	0.13855	-0.054016	0.001526	0.006409	0.001526	-0.005798	0.36438	0.002899	0.024414	0.011444	0.77286	0.006104	-0.015717	-0.12283	-0.031281	0.025024	0.009613	-0.19943	0.14938	-0.080261	-0.21484	0.076294	-0.006104	-0.010834
2.155	0.021515	-0.053558	0.000916	0.031586	0.003204	0	-0.11108	0.010834	0.13336	-0.037994	0.096436	0.012817	-0.033722	-0.013123	-0.13702	0.007172	0.044708	-0.035553	1.1443	-0.028229	0.043335	-0.11368	-0.013275	-0.014496	-0.004578	-0.13275	0.11322	-0.024719	-0.22644	-0.083771	-0.010681	-0.005188
2.156	0.015106	-0.023651	-0.001831	0.009155	0.007019	0.01297	-0.10056	0.011139	0.12817	-0.001831	0.095825	0.010986	-0.082703	-0.018921	-0.040741	0.001678	0.030212	-0.10727	0.8136	0.027618	0.009308	-0.16953	-0.009308	0.00412	0.006409	0.007324	0.1445	0.073242	-0.20691	0.0737	-0.005798	-0.004272
2.157	0.018005	-0.036469	-0.010223	0.009155	0.003662	0.005646	-0.086365	0.007935	0.098267	0.026245	0.067291	0.010071	-0.044708	-0.01358	0.025177	-0.003204	-0.009155	-0.04776	0.76584	0.024109	-0.14282	-0.055847	-0.019836	0.028534	-0.002594	0.089874	-0.11932	0.074768	-0.010223	-0.024261	-0.002441	-0.003357
2.158	0.01297	-0.031128	-0.04776	0.020599	0.010071	-0.005798	-0.072937	0.007629	0.095062	0.014496	-0.072327	0.010376	0.040588	-0.037231	-0.007019	0.00061	-0.010681	-0.098114	1.0684	-0.016327	-0.044861	0.012817	-0.035553	0.018463	0.000153	0.024719	-0.26016	0.014496	-0.03006	-0.16159	-0.003204	-0.008087
2.159	0.016174	-0.088959	-0.076447	0.015259	0.016327	0.00473	-0.07782	0.00351	0.065308	0.008698	0.007324	0.00885	0.050354	-0.014343	0.015106	-0.004425	-0.018463	-0.18662	0.81589	-0.01709	0.13138	0.012054	-0.061951	0.021973	-0.016022	0.029602	-0.014191	0.013123	0.10819	-0.31448	-0.002441	-0.012054
2.16	0.022888	-0.083313	-0.093384	0.005493	0.013733	0.007629	-0.06012	0.000763	0.04776	-0.010376	0.005493	0.007782	0.054932	-0.016632	-0.048065	-0.012512	0.01297	-0.17716	0.75821	0.007935	0.13382	-0.044403	0.008545	-0.003204	-0.011444	-0.007172	0.20096	-0.024414	0.17487	-0.042114	-0.003052	-0.014343
2.161	-0.036926	-0.064087	-0.049744	-0.005493	0.006256	0.015564	-0.043945	0.010223	0.048065	0.000763	-0.053406	0.005035	0.033569	-0.062866	-0.079956	-0.003204	0.029602	-0.11414	0.83313	-0.016327	0.087738	-0.061951	-0.024109	-0.079041	0.014954	-0.007172	0.13672	-0.037842	0.13931	0.39917	-0.004425	-0.001831
2.162	-0.016327	-0.053558	0.006866	-0.001526	0.003967	-0.007935	-0.018005	0.005951	0.059814	0.02182	-0.048523	0.003204	0.033722	-0.067902	-0.067596	0.005646	0.014343	-0.031128	0.71655	-0.035248	0.04776	-0.013885	-0.075836	-0.092773	0.032196	-0.013428	0.053253	-0.022125	0.17105	0.61905	-0.007019	0.005035
2.163	0.014038	-0.035858	-0.007629	0.000305	0.02121	-0.005493	0.003204	0.000305	0.098419	0.033264	-0.025787	0.007935	0.014801	-0.083923	-0.05722	0.004883	-0.020447	0.018463	0.83695	-0.065613	-0.23682	0.029449	-0.09613	-0.074463	0.021973	0.045624	0.14847	-0.000305	0.12238	0.83832	-0.004578	-0.003662
2.164	0.069275	-0.036774	0.029144	-0.003357	0.003815	0.005035	-0.005951	0.007782	0.18753	0.032043	-0.000763	-0.000916	0.009308	-0.0737	-0.088043	-0.000458	-0.0177	-0.038147	0.61356	-0.039673	-0.2214	0.056915	-0.060425	-0.084534	0.022888	0.14511	0.051575	-0.033569	0.11902	0.63385	-0.005341	0.001221
2.165	0.021667	-0.029144	-0.007324	-0.002747	0.031891	-0.009155	0.031433	0.001526	0.26779	-0.001526	-0.007019	0.009155	0.033417	-0.036621	-0.070343	-0.014343	-0.005646	-0.096588	0.66605	-0.029297	-0.035706	0.033569	-0.026093	-0.011444	-0.005798	0.064545	0.11597	-0.083466	0.22293	-0.005341	-0.007477	-0.002899
2.166	0.031281	0.00473	-0.050049	-0.006409	0.01358	-0.023956	0.052032	-0.003967	0.35324	-0.027771	-0.038605	0.002899	0.062256	-0.023804	-0.028229	0.003662	0.010376	-0.030975	0.56641	-0.066376	-0.055847	0.016937	-0.059357	0.037842	0.024261	0.012207	-0.003967	-0.031891	0.14725	-0.3775	-0.005341	-0.012207
2.167	0.013885	-0.012665	-0.096283	0.00351	0.022125	-0.005035	0.06897	0.008392	0.38711	-0.022888	-0.032806	0.005493	-0.01236	-0.022278	0.019226	0.006409	-0.022125	-0.00946	0.62622	0.001373	0.020447	0.009613	-0.059967	0.075378	0.009308	-0.15945	-0.085754	0.044556	-0.3157	-0.41458	-0.004578	-0.015564
2.168	0.004578	0.012665	-0.063477	0.005188	0.014648	0.012054	0.063019	0.005188	0.38025	-0.082397	-0.009308	0.007324	-0.031738	-0.030365	-0.012054	0.007477	0.00412	-0.032501	0.53909	0.08316	-0.001678	-0.059052	-0.053253	0.020599	-0.049896	-0.22964	0.13458	0.032349	-0.28671	-0.27542	-0.00061	-0.01358
2.169	0.007172	0.018005	0.006714	-0.008392	0.016632	0.026245	0.0737	0.006561	0.33218	-0.12573	0.006104	0.007324	0.005188	-0.006714	0.09552	0.006104	0.014648	0.02594	0.56519	0.07782	0.006866	-0.11856	0.016022	-0.019226	-0.034943	0.04776	0.00946	-0.17654	-0.055389	-0.017395	-0.003052	-0.012512
2.17	0.001678	-0.015564	0.057526	0.030823	0.013275	0.042725	0.061493	0.006409	0.27878	-0.051422	-0.024414	0.008087	-0.025177	-0.008392	0.43778	0.014191	0.013428	0.033264	0.46341	0.053711	0.088043	-0.11612	-0.019836	0.033875	0.007629	-0.074921	0.16022	-0.2858	-0.17212	0.22858	-0.006104	-0.005188
2.171	0.006104	-0.023956	0.008392	0.007935	-0.001526	0.045624	0.057983	0.007019	0.20081	0.032349	-0.054169	0.005646	-0.039978	-0.020294	-0.088043	0.000458	0.011597	0.004883	0.42511	0.048523	0.098724	-0.029602	-0.037231	0.008545	-0.016632	0.012207	0.18173	0.26855	-0.26764	0.31174	-0.003052	-0.006409
2.172	-0.001526	0.016174	0.017395	-0.006256	0.000763	0.0354	0.069275	0.000916	0.15106	0.041504	-0.07843	0.004272	0.023346	0.010529	0.21668	0.003967	0.010071	0.045929	0.63797	-0.019836	0.056763	0.014801	-0.034637	-0.01297	0.005646	0.10315	-0.15045	0.12772	-0.2385	0.26093	-0.003815	-0.004578
